<?xml version="1.0" encoding="utf-8"?>
<!-- Generator: Adobe Illustrator 18.1.1, SVG Export Plug-In . SVG Version: 6.00 Build 0)  -->
<svg version="1.1" id="Layer_1" xmlns="http://www.w3.org/2000/svg" xmlns:xlink="http://www.w3.org/1999/xlink" x="0px" y="0px"
	 viewBox="0 0 1584 864" enable-background="new 0 0 1584 864" xml:space="preserve">
<g>
	<path fill="#666766" d="M1348.7,296.9h33.3l-89.1-29.7l17,84.9l5-21.7c25.9,26,42,61.9,42,101.6c0,79.5-64.5,144-144,144
		c-52.8,0-98.9-28.4-124-70.7H58.9L1062.7,528c33,50.6,90,84,154.9,84c102.1,0,184.8-82.7,184.8-184.8
		C1402.4,376.4,1381.9,330.3,1348.7,296.9z"/>
	<path fill="#666766" d="M1240.8,378.5l-29.7-29.7c0,0-9.5,4.5-22.3,15l33.4,33.4L1240.8,378.5z"/>
	<path fill="#666766" d="M1219.6,399.8l-33.6-33.6c-3.1,2.7-6.4,5.6-9.7,9c-3.5,3.5-6.8,7-9.9,10.4l33.7,33.7L1219.6,399.8z"/>
	<path fill="#666766" d="M1206,447.3l-17-17l8.5-8.5l-33.6-33.6c-6.6,7.4-12.2,14.4-16.8,20.5l48.7,48.7L1206,447.3z"/>
	<path fill="#666766" d="M1193.3,460l-48.4-48.4c-9,12.2-13.6,20.4-13.6,20.4l45,45L1193.3,460z"/>
	<path fill="#666766" d="M1215.4,451.5l30.5-30.5l2.5,2.5l-33.1,33.1l-5.1-5.1l-29.7,29.7c0,0,9.3,9.3,19.5,19.5
		c10.2,10.2,22.1,5.1,22.1,5.1l14.3,14.3c31.4-8.4,56.1-33.1,64.5-64.5l-14.3-14.3c0,0,11.9-25.5-6.8-44.1l-25.5-25.5l-59.4,59.4
		L1215.4,451.5z"/>
	<path fill="#666766" d="M1140.8,648l28.8,28.8v-67.7c-10-3-19.6-6.8-28.8-11.3V648z"/>
	<path fill="#666766" d="M1457.6,388.8l-28.8-28.8h-36.2c3.9,9.2,7.1,18.9,9.5,28.8H1457.6z"/>
	<path fill="#666766" d="M1407.2,427.2h117.9l-41.1-28.8h-79.8C1405.9,407.8,1406.9,417.4,1407.2,427.2z"/>
	<path fill="#666766" d="M1392.7,504h36.2l28.8-28.8h-55.5C1399.8,485.1,1396.6,494.8,1392.7,504z"/>
	<path fill="#666766" d="M1256,676.8l28.8-28.8v-42c-9.3,3.3-18.9,5.9-28.8,7.8V676.8z"/>
	<path fill="#666766" d="M1404.2,465.6h79.8l41.1-28.8h-117.9C1406.9,446.6,1405.9,456.2,1404.2,465.6z"/>
	<path fill="#666766" d="M1179.2,703.1l28.8,41.1v-128c-9.8-0.8-19.5-2.3-28.8-4.5L1179.2,703.1z"/>
	<path fill="#666766" d="M1217.6,616.7v127.5l28.8-41.1v-87.9c-7.9,1-15.9,1.5-24,1.5C1220.8,616.8,1219.2,616.8,1217.6,616.7z"/>
	<path fill="#666766" d="M1140.8,533.9v21.4c9,5.3,18.7,9.6,28.8,12.9v-19.1c3.1,1.2,6.3,2.2,9.6,3.1v18.7
		c9.3,2.3,18.9,3.6,28.8,3.9v-18.1c1.6,0.1,3.2,0.1,4.8,0.1s3.2,0,4.8-0.1v18.1c9.9-0.3,19.5-1.7,28.8-3.9v-18.7
		c3.3-0.9,6.5-1.9,9.6-3.1v19.1c10.1-3.2,19.8-7.5,28.8-12.8v-21.5c11.6-8.2,21.7-18.3,29.9-29.9h21.5c5.3-9,9.6-18.7,12.8-28.8
		h-19.1c1.2-3.1,2.2-6.3,3.1-9.6h18.7c2.2-9.3,3.6-18.9,3.9-28.8h-18.1c0.1-1.6,0.1-3.2,0.1-4.8s0-3.2-0.1-4.8h18.1
		c-0.3-9.9-1.7-19.5-3.9-28.8H1333c-0.9-3.3-1.9-6.5-3.1-9.6h19c-3.2-10.1-7.6-19.8-12.9-28.8h-21.3c-8.2-11.6-18.3-21.7-29.9-29.9
		V216l-28.8-28.8v127.7c-3.1-1.2-6.3-2.2-9.6-3.1V160.9l-28.8-41.1v187.5c-1.6-0.1-3.2-0.1-4.8-0.1s-3.2,0-4.8,0.1V119.8l-28.8,41.1
		l0,150.9c-3.3,0.9-6.5,1.9-9.6,3.1V187.2l-28.8,28.8v114.1c-11.6,8.2-21.7,18.3-29.9,29.9H348.8l-144,144h906.1
		C1119.1,515.6,1129.2,525.7,1140.8,533.9z M1212.8,336c53,0,96,43,96,96c0,53-43,96-96,96c-53,0-96-43-96-96
		C1116.8,379,1159.8,336,1212.8,336z M500,475.2h-55.2L401.6,432v43.2h-55.2v-86.4H392l52.8,52.8v-52.8H500V475.2z M666.8,475.2h-60
		v-28.8l-13.2,13.2h-14.4L566,446.4v28.8h-60v-86.4h38.4l42,42l42-42h38.4V475.2z M708.8,444h-36v-19.2h36V444z M776,475.2h-55.2
		v-86.4H776V475.2z M921.2,400.8h-84c0,0,0,0,40.8,16.8c13.3,5.5,43.2,18,43.2,36c0,13.2-14.4,21.6-38.4,21.6
		c-7.2,0-100.8,0-100.8,0v-12h84c0,0,0,0-40.8-16.8c-13.3-5.5-43.2-18-43.2-36c0-13.2,14.4-21.6,38.4-21.6c12,0,100.8,0,100.8,0
		V400.8z M1088,475.2h-60v-28.8l-13.2,13.2h-14.4l-13.2-13.2v28.8h-60v-86.4h38.4l42,42l42-42h38.4V475.2z"/>
</g>
</svg>
